<?xml version="1.0" encoding="utf-8"?>
<!-- Generator: Adobe Illustrator 25.2.3, SVG Export Plug-In . SVG Version: 6.00 Build 0)  -->
<svg version="1.1" id="레이어_1" xmlns="http://www.w3.org/2000/svg" xmlns:xlink="http://www.w3.org/1999/xlink" x="0px"
	 y="0px" viewBox="0 0 200.7 61.3" style="enable-background:new 0 0 200.7 61.3;" xml:space="preserve">
<style type="text/css">
	.st0{fill-rule:evenodd;clip-rule:evenodd;fill:#FF0558;}
</style>
<g>
	<path class="st0" d="M154.9,32.2h-7.5V15.5h-9.7v43.3h9.7V40.1h7.5v18.8h9.7V15.5h-9.7V32.2z M121.1,15h-1.7
		c-8.8,0-12.3,4.5-12.3,11.8v20.6c0,7.3,3.5,11.9,12.5,11.9h1.7c8.9,0,12-5.4,12-11.4v-7.4h-9.5v6.9c0,2.6-0.9,4.1-3.4,4.1
		c-2.4,0-3.3-1.5-3.3-4.2V26.7c0-2.7,0.8-4.1,3.3-4.1c2.6,0,3.4,1.5,3.4,4.1v5h9.5v-5.5C133.3,19,129.9,15,121.1,15z M185.8,44
		L183,25.9h-1.7L178.5,44H185.8z M189.4,15.5l7.7,43.3h-8.9l-1.1-6.9h-9.8l-1.1,6.9h-8.9l7.6-43.3H189.4z M71.2,15.6l-9.7,0
		l-0.1,7.9l0,35.4l9.7,0l0-35.4"/>
	<path class="st0" d="M15.8,58.9l2.9-29.4l0.8,0l6.9,29.3h8.5L40,28.3l1.1-0.1l4.6,30.4h11.9L46.8,13.4l-12.1,0.8l-3.9,28.1
		l-1.2,0.1l-5.3-27.5l-11.6,0.8L3.7,58.9H15.8z"/>
	<rect x="61.4" y="1.9" class="st0" width="9.8" height="10.5"/>
	<path class="st0" d="M90.2,15h-1.7c-8.8,0-12.3,4.5-12.3,11.8v20.6c0,7.3,3.5,11.9,12.5,11.9h1.7c8.9,0,12-5.4,12-11.4v-7.4h-9.5
		v6.9c0,2.6-0.9,4.1-3.4,4.1c-2.4,0-3.3-1.5-3.3-4.2V26.7c0-2.7,0.8-4.1,3.3-4.1c2.6,0,3.4,1.5,3.4,4.1v5h9.5v-5.5
		C102.4,19,99.1,15,90.2,15z"/>
</g>
</svg>
