<svg class="SVGInline-svg css-hf872-svg" width="36px" height="36px" viewBox="0 0 36 36" version="1.1" xmlns="http://www.w3.org/2000/svg" xmlns:xlink="http://www.w3.org/1999/xlink">
    <g id="Icons_Search_Delete" stroke="none" stroke-width="1" fill="none" fill-rule="evenodd">
        <g id="x-circle" fill="#26262F" fill-rule="nonzero">
            <path d="M30.727,30.727 C23.727,37.726 12.273,37.726 5.273,30.725 C-1.726,23.727 -1.726,12.273 5.273,5.273 C12.273,-1.726 23.727,-1.726 30.726,5.273 C37.726,12.273 37.726,23.727 30.727,30.727 L30.727,30.727 Z M27.893,8.106 C22.452,2.665 13.549,2.665 8.107,8.107 C2.665,13.548 2.665,22.452 8.106,27.893 C13.548,33.335 22.452,33.335 27.894,27.893 C33.335,22.451 33.335,13.548 27.893,8.106 L27.893,8.106 Z M22.243,25.071 L18,20.828 L13.757,25.071 L10.929,22.243 L15.172,18 L10.929,13.757 L13.757,10.929 L18,15.172 L22.243,10.929 L25.071,13.757 L20.828,18 L25.071,22.243 L22.243,25.071 L22.243,25.071 Z" id="Shape"></path>
        </g>
    </g>
</svg>